<svg xmlns="http://www.w3.org/2000/svg" viewBox="0 0 256 256" role="img" aria-label="中国财务 AI 助手图标">
  <defs>
    <linearGradient id="bg" x1="32" y1="24" x2="224" y2="232" gradientUnits="userSpaceOnUse">
      <stop offset="0" stop-color="#0f766e"/>
      <stop offset="0.52" stop-color="#14532d"/>
      <stop offset="1" stop-color="#172033"/>
    </linearGradient>
    <linearGradient id="paper" x1="80" y1="52" x2="184" y2="198" gradientUnits="userSpaceOnUse">
      <stop offset="0" stop-color="#ffffff"/>
      <stop offset="1" stop-color="#dff7ef"/>
    </linearGradient>
    <filter id="shadow" x="-20%" y="-20%" width="140%" height="140%">
      <feDropShadow dx="0" dy="10" stdDeviation="12" flood-color="#06251f" flood-opacity="0.28"/>
    </filter>
  </defs>
  <rect width="256" height="256" rx="54" fill="url(#bg)"/>
  <path d="M48 180c37 25 86 30 138 14 13-4 24-9 34-15v30c-20 13-51 22-86 22-34 0-64-8-86-22z" fill="#27c499" opacity="0.42"/>
  <g filter="url(#shadow)">
    <path d="M78 47h76l32 32v116c0 9-7 16-16 16H78c-9 0-16-7-16-16V63c0-9 7-16 16-16z" fill="url(#paper)"/>
    <path d="M154 47v28c0 5 4 9 9 9h23z" fill="#a7f3d0"/>
  </g>
  <path d="M88 116h74" stroke="#0f766e" stroke-width="11" stroke-linecap="round"/>
  <path d="M88 146h38" stroke="#164e63" stroke-width="11" stroke-linecap="round"/>
  <path d="M89 174l26-27 24 18 34-45" fill="none" stroke="#d97706" stroke-width="12" stroke-linecap="round" stroke-linejoin="round"/>
  <circle cx="194" cy="88" r="23" fill="#f8fafc" stroke="#22c55e" stroke-width="8"/>
  <circle cx="194" cy="88" r="6" fill="#0f766e"/>
  <circle cx="219" cy="61" r="8" fill="#fbbf24"/>
  <circle cx="222" cy="119" r="8" fill="#67e8f9"/>
  <path d="M211 72l8-9M211 103l10 12" stroke="#dff7ef" stroke-width="5" stroke-linecap="round"/>
</svg>
